HIERARCHY
ROOT Pelvis
{
	OFFSET 0.000000 0.000000 0.000000
	CHANNELS 6 Xposition Yposition Zposition Xrotation Yrotation Zrotation
	JOINT LeftUpLeg_virtual
	{
		OFFSET 0.000000 0.000000 0.000000
		CHANNELS 3 Xrotation Yrotation Zrotation
		JOINT LeftUpLeg
		{
			OFFSET 8.479700 -4.795502 -0.379100
			CHANNELS 3 Xrotation Yrotation Zrotation
			JOINT LeftLeg
			{
				OFFSET 0.024144 -32.555107 0.112900
				CHANNELS 3 Xrotation Yrotation Zrotation
				JOINT LeftFoot
				{
					OFFSET -0.024144 -32.638630 -3.012600
					CHANNELS 3 Xrotation Yrotation Zrotation
					JOINT LeftToeBase
					{
						OFFSET 0.970200 -13.225400 11.864200
						CHANNELS 3 Xrotation Yrotation Zrotation
						End Site
						{
							OFFSET 0 0 0
						}
					}
				}
			}
		}
	}
	JOINT RightUpLeg_virtual
	{
		OFFSET 0.000000 0.000000 0.000000
		CHANNELS 3 Xrotation Yrotation Zrotation
		JOINT RightUpLeg
		{
			OFFSET -8.479700 -4.795502 -0.379100
			CHANNELS 3 Xrotation Yrotation Zrotation
			JOINT RightLeg
			{
				OFFSET -0.023144 -32.555092 0.112900
				CHANNELS 3 Xrotation Yrotation Zrotation
				JOINT RightFoot
				{
					OFFSET 0.023144 -32.638641 -3.012700
					CHANNELS 3 Xrotation Yrotation Zrotation
					JOINT RightToeBase
					{
						OFFSET -0.970200 -13.225400 11.864200
						CHANNELS 3 Xrotation Yrotation Zrotation
						End Site
						{
							OFFSET 0 0 0
						}
					}
				}
			}
		}
	}
	JOINT Hips_virtual
	{
		OFFSET 0.000000 0.000000 0.000000
		CHANNELS 3 Xrotation Yrotation Zrotation
		JOINT Hips
		{
			OFFSET -0.000000 -0.000000 -0.000000
			CHANNELS 3 Xrotation Yrotation Zrotation
			JOINT Spine
			{
				OFFSET 0.000000 7.722000 1.166200
				CHANNELS 3 Xrotation Yrotation Zrotation
				JOINT Spine1
				{
					OFFSET 0.000000 12.024101 0.248800
					CHANNELS 3 Xrotation Yrotation Zrotation
					JOINT Spine2
					{
						OFFSET 0.000000 11.502998 -0.491200
						CHANNELS 3 Xrotation Yrotation Zrotation
						JOINT Neck_virtual
						{
							OFFSET 0.000000 0.000000 0.000000
							CHANNELS 3 Xrotation Yrotation Zrotation
							JOINT Neck
							{
								OFFSET 0.000000 18.430702 -3.123100
								CHANNELS 3 Xrotation Yrotation Zrotation
								JOINT Head
								{
									OFFSET 0.000000 9.051102 1.034000
									CHANNELS 3 Xrotation Yrotation Zrotation
									End Site
									{
										OFFSET 0 0 0
									}
								}
							}
						}
						JOINT LeftShoulder_virtual
						{
							OFFSET 0.000000 0.000000 0.000000
							CHANNELS 3 Xrotation Yrotation Zrotation
							JOINT LeftShoulder
							{
								OFFSET 6.197800 13.665199 -4.064700
								CHANNELS 3 Xrotation Yrotation Zrotation
								JOINT LeftArm
								{
									OFFSET 7.778100 -0.187103 -1.709300
									CHANNELS 3 Xrotation Yrotation Zrotation
									JOINT LeftForeArm
									{
										OFFSET 22.049376 0.000000 0.000000
										CHANNELS 3 Xrotation Yrotation Zrotation
										JOINT LeftHand
										{
											OFFSET 23.009392 0.000000 0.000000
											CHANNELS 3 Xrotation Yrotation Zrotation
											End Site
											{
												OFFSET 0 0 0
											}
										}
									}
								}
							}
						}
						JOINT RightShoulder_virtual
						{
							OFFSET 0.000000 0.000000 0.000000
							CHANNELS 3 Xrotation Yrotation Zrotation
							JOINT RightShoulder
							{
								OFFSET -6.197800 13.665199 -4.064700
								CHANNELS 3 Xrotation Yrotation Zrotation
								JOINT RightArm
								{
									OFFSET -7.778100 -0.187103 -1.709300
									CHANNELS 3 Xrotation Yrotation Zrotation
									JOINT RightForeArm
									{
										OFFSET -22.049376 0.000000 0.000000
										CHANNELS 3 Xrotation Yrotation Zrotation
										JOINT RightHand
										{
											OFFSET -23.009392 0.000000 0.000000
											CHANNELS 3 Xrotation Yrotation Zrotation
											End Site
											{
												OFFSET 0 0 0
											}
										}
									}
								}
							}
						}
					}
				}
			}
		}
	}
}
MOTION
Frames: 10
Frame Time: 0.03333333
-0.115909 67.117027 1.914333 0.000000 0.000000 0.000000 6.188792 8.694447 1.424110 11.889391 9.229165 6.825437 32.154570 3.951590 10.006926 -15.808907 -3.855621 -0.008544 0.000000 0.000000 0.000000 7.506268 7.704519 -0.263110 -60.245485 -0.824581 -3.240592 75.610904 -6.368713 1.289255 -13.108183 3.620600 -4.862875 0.000000 0.000000 0.000000 2.686636 7.671201 -2.577740 0.021918 -0.681449 -0.039721 3.989329 -3.489292 0.553470 1.909776 -3.523250 2.398817 0.000000 0.000000 0.000000 2.351896 -3.511153 2.581466 -2.596919 1.755541 -2.555993 0.000000 0.000000 0.000000 2.638091 -2.820647 2.036939 -0.623839 4.026935 -2.226101 -16.304992 12.161034 -59.770528 -179.545032 -68.745956 179.296564 0.000000 0.000000 0.000000 0.525113 -4.377373 1.565230 -0.056828 -7.167098 11.773246 -35.120546 22.441568 58.328210 0.527805 65.333696 -0.499071 0.000000 0.000000 0.000000 
0.275954 69.649529 1.401434 0.000000 0.000000 0.000000 6.001100 8.589043 0.627225 10.566481 8.784264 6.882257 29.981136 3.386220 9.938241 -12.104643 -3.174727 -0.261293 0.000000 0.000000 0.000000 7.410105 6.888968 -0.410029 -57.474696 -0.885449 -3.196727 69.502379 -6.041798 1.028758 -11.810630 3.581435 -4.371315 0.000000 0.000000 0.000000 2.520954 7.863875 -2.183657 0.106309 -0.134053 -0.005828 3.771236 -3.075098 0.946054 1.872586 -3.356900 2.114847 0.000000 0.000000 0.000000 2.260443 -3.340495 2.281689 -2.964280 1.502787 -2.329153 0.000000 0.000000 0.000000 2.743161 -2.874897 1.989266 -0.711029 2.225721 -1.986300 -23.094085 8.377072 -58.509245 -179.688630 -71.659722 179.125058 0.000000 0.000000 0.000000 0.992008 -4.047608 1.522514 -0.478102 -5.976333 10.970739 -39.075239 22.880476 58.757467 0.527805 65.333696 -0.499071 0.000000 0.000000 0.000000 
0.677807 73.215294 1.017281 0.000000 0.000000 0.000000 5.333122 8.903931 -0.021559 6.276726 8.192144 6.995622 32.279249 2.673140 9.072345 0.105585 -2.072696 -0.260638 0.000000 0.000000 0.000000 7.028765 6.279451 -0.272882 -51.115927 -1.791549 -3.693899 57.000879 -6.286928 0.150302 -7.226024 2.964254 -3.438066 0.000000 0.000000 0.000000 2.132690 9.118811 -1.520924 0.066923 -0.075979 0.011189 3.755565 -2.458155 1.844340 2.032327 -3.026477 1.487432 0.000000 0.000000 0.000000 2.299176 -3.001128 1.632544 -3.195347 1.192332 -2.402456 0.000000 0.000000 0.000000 2.988357 -2.683337 1.653044 -0.565267 -0.224615 -1.607698 -31.965559 1.807850 -57.572395 179.595630 -76.102118 178.719809 0.000000 0.000000 0.000000 1.770672 -3.550482 1.367321 -0.772274 -4.731039 9.256540 -45.101669 22.641201 59.263564 0.527805 65.333696 -0.499071 0.000000 0.000000 0.000000 
0.880843 76.598312 0.744780 0.000000 0.000000 0.000000 4.466078 9.874344 -0.338085 -1.181692 7.882996 7.089908 39.786255 2.249711 7.462111 16.420989 -0.804692 -0.081284 0.000000 0.000000 0.000000 6.179549 7.346208 -0.051021 -43.729825 -3.294265 -3.980417 43.616949 -6.614804 -1.212967 -0.016108 2.190368 -2.139456 0.000000 0.000000 0.000000 1.654620 11.017251 -0.879597 -0.041393 -0.355183 -0.010896 4.092983 -1.801996 2.823538 2.413957 -2.607636 0.827023 0.000000 0.000000 0.000000 2.512193 -2.561423 0.947486 -3.004111 0.895520 -2.779566 0.000000 0.000000 0.000000 3.382502 -2.276175 1.152908 -0.244404 -2.753224 -0.941421 -41.020695 -5.629757 -57.819232 177.942315 -81.259129 177.534443 0.000000 0.000000 0.000000 2.624934 -3.019960 1.164963 -0.880826 -3.812388 6.751095 -52.316206 22.042093 59.921352 0.527805 65.333696 -0.499071 0.000000 0.000000 0.000000 
0.852340 79.235336 0.375330 0.000000 0.000000 0.000000 3.474830 11.825287 -0.481606 -11.332085 7.683139 7.217318 51.636845 2.018798 5.550562 31.243956 0.290325 0.313939 0.000000 0.000000 0.000000 4.660542 8.157835 0.388144 -37.718603 -4.636296 -3.599542 33.087636 -6.620536 -2.636505 7.895695 1.683528 -0.824396 0.000000 0.000000 0.000000 1.015601 12.458667 -0.490303 -0.152786 -0.140465 -0.031121 4.790562 -1.152157 3.391675 2.929439 -2.145324 0.452131 0.000000 0.000000 0.000000 2.917231 -2.087150 0.558094 -2.263125 0.633141 -3.319103 0.000000 0.000000 0.000000 3.780249 -1.797380 0.710850 0.096938 -5.176734 0.443094 -50.149540 -12.454365 -59.073883 171.363818 -86.901740 171.363586 0.000000 0.000000 0.000000 3.395366 -2.534287 1.026406 -0.922339 -3.256696 3.466000 -60.247528 21.306748 60.882298 0.527805 65.333696 -0.499071 0.000000 0.000000 0.000000 
0.641406 80.832375 0.084463 0.000000 0.000000 0.000000 2.636153 12.921193 -0.416483 -22.877591 7.607407 7.580305 65.594364 2.118444 3.693497 40.403444 1.095305 1.293503 0.000000 0.000000 0.000000 2.376637 8.207667 1.085954 -33.681346 -5.610739 -2.649382 27.726234 -6.018874 -3.415100 13.844242 1.537803 -0.061171 0.000000 0.000000 0.000000 0.168440 13.759759 -0.497618 -0.057649 -0.401934 0.028628 5.816220 -0.557509 3.303445 3.428332 -1.703514 0.525019 0.000000 0.000000 0.000000 3.435930 -1.645953 0.663897 -0.966589 0.389019 -3.820723 0.000000 0.000000 0.000000 4.091729 -1.308144 0.479242 0.414388 -6.977207 2.817574 -59.173829 -17.084728 -60.594638 10.211497 -87.113708 10.445998 0.000000 0.000000 0.000000 3.954985 -2.151443 1.034283 -1.025739 -3.131257 -0.546242 -68.270220 20.249093 62.349382 0.527805 65.333696 -0.499071 0.000000 0.000000 0.000000 
0.362064 81.549866 -0.063465 0.000000 0.000000 0.000000 1.696582 12.794990 -0.226528 -34.684090 7.970231 8.198281 79.076986 2.821719 2.127713 43.386072 1.315198 2.857447 0.000000 0.000000 0.000000 -0.441194 9.331491 1.450182 -30.814057 -6.284095 -1.331420 27.335761 -4.673139 -3.252788 16.062500 1.601814 -0.251068 0.000000 0.000000 0.000000 -0.882871 14.484116 -0.702983 0.106600 -0.745851 0.044208 7.166902 0.002124 2.665850 3.799327 -1.341247 1.006864 0.000000 0.000000 0.000000 3.939138 -1.300643 1.163395 0.822386 0.285686 -4.096950 0.000000 0.000000 0.000000 4.367402 -0.954561 0.574407 0.673985 -8.089376 6.096705 -68.054980 -19.441534 -62.213365 3.130103 -81.661673 3.493802 0.000000 0.000000 0.000000 4.302034 -1.902720 1.179318 -1.295059 -3.493895 -5.293578 -76.210035 18.676326 64.246726 0.527805 65.333696 -0.499071 0.000000 0.000000 0.000000 
0.033119 81.190796 0.135948 0.000000 0.000000 0.000000 0.337295 12.088387 0.023656 -45.429668 8.686098 8.846283 90.572809 3.965420 1.061309 42.259839 1.044407 4.502908 0.000000 0.000000 0.000000 -2.895042 10.272932 1.379455 -28.861757 -6.432948 0.154743 29.982908 -2.731992 -2.405123 13.774939 1.699263 -1.387058 0.000000 0.000000 0.000000 -2.124604 14.293543 -0.890420 -0.011870 -0.911287 -0.197363 8.781672 0.466641 1.828772 3.989375 -1.102144 1.636172 0.000000 0.000000 0.000000 4.307946 -1.083879 1.791816 3.042515 0.359318 -4.046845 0.000000 0.000000 0.000000 4.489693 -0.823233 0.928997 0.762110 -8.369326 9.715883 -76.147908 -19.679387 -63.983539 2.047807 -77.973522 2.408760 0.000000 0.000000 0.000000 4.481892 -1.779686 1.397297 -1.753722 -4.222114 -10.430268 -83.602417 16.161517 66.188624 0.527805 65.333696 -0.499071 0.000000 0.000000 0.000000 
-0.338191 79.810654 0.603220 0.000000 0.000000 0.000000 -1.029810 10.240387 -0.153787 -54.563410 9.119068 9.440162 99.489738 5.373101 0.573195 39.332857 0.604981 5.738371 0.000000 0.000000 0.000000 -5.040847 10.455695 1.081898 -27.559122 -6.438216 1.396030 34.912020 -0.641473 -1.304814 7.759050 1.903198 -3.121165 0.000000 0.000000 0.000000 -3.717356 13.814219 -0.944178 -0.361803 -1.190257 -0.401202 10.548667 0.684048 1.119919 4.008667 -1.026712 2.090363 0.000000 0.000000 0.000000 4.484817 -1.021916 2.233518 5.552020 0.574529 -3.755490 0.000000 0.000000 0.000000 4.377472 -0.873742 1.300403 0.620024 -7.835026 13.088899 -82.641259 -18.184537 -65.756731 1.978368 -77.217624 2.243549 0.000000 0.000000 0.000000 4.514858 -1.734490 1.535643 -2.260728 -4.995696 -15.376443 -89.773240 12.670733 67.891069 0.527805 65.333696 -0.499071 0.000000 0.000000 0.000000 
-0.513616 77.720512 1.181816 0.000000 0.000000 0.000000 -2.307014 8.454221 -0.558931 -62.421085 8.812150 9.685519 106.447474 6.623824 0.629020 36.473729 0.161678 6.319133 0.000000 0.000000 0.000000 -7.054289 10.670410 0.591770 -26.623166 -6.642780 2.162800 41.450277 1.084059 -0.431767 -0.047351 2.403908 -4.934238 0.000000 0.000000 0.000000 -5.569334 12.623464 -0.735302 -0.828043 -1.184899 -0.573390 12.165844 0.717402 0.712212 3.937061 -1.089889 2.140751 0.000000 0.000000 0.000000 4.483812 -1.110949 2.231329 7.995497 0.891335 -3.348619 0.000000 0.000000 0.000000 4.058691 -1.044085 1.476399 0.326125 -7.005053 15.905441 -87.298191 -15.699451 -67.247399 1.871028 -79.406837 2.064510 0.000000 0.000000 0.000000 4.440263 -1.734195 1.460552 -2.633592 -5.433799 -19.691097 -94.600388 8.885860 68.890155 0.527805 65.333696 -0.499071 0.000000 0.000000 0.000000 
